<?xml version="1.0" encoding="UTF-8"?><svg id="Layer_1" xmlns="http://www.w3.org/2000/svg" viewBox="0 0 437.92 282.37"><defs><style>.cls-1{fill:#075054;}.cls-2{fill:#00eebc;}</style></defs><path d="M0,203.56h55.99v12.69H14.55v18.51h27.59v12.69H14.55v20.72h42.72v12.69H0v-77.3Z"/><path d="M59.37,243.38c0-25.38,15.13-41.33,37.14-41.33,18.28,0,30.62,9.43,33.41,27.36h-15.37c-1.86-9.78-8.15-14.09-18.16-14.09-13.04,0-21.89,10.13-21.89,27.59v1.16c0,16.07,8.38,25.49,22,25.49,9.55,0,17.46-5.59,18.51-15.02h-17.11v-12.22h32.25v38.53h-13.15v-10.59c-4.42,7.68-12.22,12.11-22.47,12.11-21.19,0-35.16-15.25-35.16-39Z"/><path d="M155.29,245.94l-27.82-42.37h16.76l18.98,29.8,18.86-29.8h16.07l-28.06,42.49v34.81h-14.78v-34.92Z"/><path d="M224.66,216.25h-23.52v-12.69h61.81v12.69h-23.52v64.61h-14.78v-64.61Z"/><path d="M271.23,203.56h29.45c21.77,0,30.62,8.85,30.62,21.54,0,10.94-6.87,19.21-18.63,21.3,11.87,3.37,17.46,12.57,19.67,30.73,0,.35.35,3.49.47,3.73h-15.72l-.12-2.79c-1.86-15.95-7.68-25.38-22.82-25.49h-8.38v28.29h-14.55v-77.3ZM298.93,241.28c13.04,0,17.46-7.8,17.46-14.43,0-7.45-4.66-11.41-16.65-11.41h-13.97v25.96l13.15-.12Z"/><path d="M342.23,203.56h14.78v77.3h-14.78v-77.3Z"/><path d="M366.79,242.21c0-24.1,14.78-40.16,36.55-40.16,18.16,0,30.97,9.43,34.34,28.64h-15.25c-2.45-10.94-9.2-15.25-19.21-15.25-13.15,0-21.07,9.89-21.07,26.19v1.16c0,16.41,7.8,26.19,20.84,26.19,10.59,0,17.58-4.54,19.67-16.41h15.25c-2.91,20.26-16.41,29.8-35.27,29.8-21.3,0-35.86-16.18-35.86-40.16Z"/><path class="cls-2" d="M254.18,147.4c-22.72,4.31-49.71,4.5-72.59-.61-32.28-8.06-38.1-38.2-37.87-69.07-.06-11.1.3-22.52,2.22-33.41C151.09,11.1,176.95.64,207.55.2c22.53-.53,49.71-.92,66.16,11.59,20.63,15.3,20.42,43.91,20.49,67.6.08,30.35-6.15,60.43-39.52,67.89l-.49.12Z"/><path class="cls-1" d="M255.81,67.12c-6.49,13.99-17.55,26.37-29.21,36.21-6.75,5.6-15.48,9.92-24.25,7.34-12.64-3.5-21.66-16.97-18.09-30.17,4.07-16.77,20.21-37.05,38.06-40.83,3.66-.65,7.24-1.14,10.16.95,3.59,2.55,1.24,4.56-.68,7.05-1.68,1.82-6.63,7.1-8.38,8.97-4.64,4.96-14.78,15.77-19.34,20.65,2.38.81,6.01,2.06,9.65,3.32l-14.16,17.75.86.95,30.62-16.8,11.52-7.35c-2.76-1.04-7.37-2.77-11.9-4.42,3.62-3.86,7.36-7.86,9.3-9.93,3.14-3.24,7.69-8.14,8.9-13.65,2.32-9.69-4.57-18.55-13.19-21.57-18.36-5.29-36.48,6.26-48.26,19.33-12.34,14.15-22.77,33.21-17.26,52.68,5.85,19.95,28.78,33.96,49.01,26.93,11.89-3.88,21.41-13.12,29.65-21.74,8.25-8.38,15.36-18.47,20.47-29.24,0,0-13.46-6.42-13.46-6.42Z"/></svg>