<?xml version="1.0" encoding="UTF-8"?><svg id="Layer_1" xmlns="http://www.w3.org/2000/svg" viewBox="0 0 269.43 269.71"><defs><style>.cls-1{fill:#075054;}.cls-2{fill:#00eebc;}</style></defs><path class="cls-2" d="M197.78,263.93c-40.68,7.72-89.01,8.06-129.97-1.09C10.01,248.41-.4,194.43.01,139.16c-.1-19.88.54-40.32,3.97-59.82C13.2,19.88,59.49,1.14,114.29.36c40.33-.96,89-1.65,118.46,20.76,36.93,27.39,36.56,78.63,36.68,121.04.14,54.34-11.01,108.2-70.77,121.56l-.87.21Z"/><path class="cls-1" d="M200.7,120.18c-11.61,25.05-31.43,47.21-52.31,64.84-12.09,10.03-27.72,17.76-43.41,13.14-22.63-6.27-38.79-30.39-32.39-54.02,7.29-30.03,36.18-66.33,68.15-73.12,6.55-1.16,12.97-2.03,18.18,1.7,6.44,4.56,2.22,8.17-1.21,12.63-3,3.25-11.87,12.72-15,16.06-8.31,8.87-26.47,28.24-34.64,36.97,4.26,1.46,10.76,3.69,17.28,5.94l-25.36,31.77,1.53,1.7,54.83-30.09,20.62-13.15c-4.94-1.87-13.19-4.95-21.3-7.91,6.48-6.92,13.18-14.07,16.66-17.78,5.62-5.8,13.77-14.57,15.94-24.45,4.16-17.36-8.18-33.21-23.61-38.62-32.88-9.47-65.31,11.21-86.42,34.61-22.09,25.34-40.77,59.47-30.91,94.33,10.48,35.72,51.53,60.81,87.75,48.22,21.29-6.94,38.33-23.5,53.08-38.93,14.77-15,27.51-33.07,36.65-52.35,0,0-24.11-11.5-24.11-11.5Z"/></svg>